<svg xmlns="http://www.w3.org/2000/svg" stroke="#000" stroke-linecap="round" stroke-linejoin="round" stroke-width="3" viewBox="-200 -200 400 400"><defs><g id="g"><use href="#a"/><use href="#b"/><use href="#c"/></g><g id="i"><path fill="url(#d)" d="m0 0 52-30 103 60-52 30z"/><use href="#b"/><path fill="url(#e)" d="m0 0 103 60v60L0 60z"/></g><g id="h"><use href="#a"/><use href="#b"/><use href="#c"/></g><g id="j"><use href="#a"/><use href="#b"/><use href="#c"/><path fill="url(#e)" d="m-52-150 52-30 52 30-52 30z"/><path fill="url(#d)" d="M-52-150v120L0 0v-120z"/><path fill="url(#f)" d="M52-150v120L0 0v-120z"/></g><linearGradient id="e" x1="0" x2="0" y1="0" y2="1"><stop offset="0%" stop-color="#a78bfa"/><stop offset="100%" stop-color="#9275e2"/></linearGradient><linearGradient id="f" x1="0" x2="1" y1="0" y2="1"><stop offset="0%" stop-color="#a78bfa"/><stop offset="100%" stop-color="#7c5ce0"/></linearGradient><linearGradient id="d" x1="0" x2="0" y1="0" y2="1"><stop offset="0%" stop-color="#8b6ce8"/><stop offset="100%" stop-color="#5b3bb8"/></linearGradient><path id="a" fill="url(#e)" d="m0 0 52-30 103 60-52 30z"/><path id="b" fill="url(#f)" d="m103 60 52-30v60l-52 30z"/><path id="c" fill="url(#d)" d="m0 0 103 60v60L0 60z"/></defs><use href="#g" transform="rotate(-.49 -10535.499 18459.103)"/><use href="#h" transform="rotate(-120 51.52 89.745)"/><use href="#i" transform="rotate(120)"/><use href="#i" transform="rotate(120 103.48 .255)"/><use href="#g" transform="rotate(-.49 -49.281 59.005)"/><use href="#j" transform="rotate(-120)"/></svg>